<?xml version="1.0" standalone="no"?><!DOCTYPE svg PUBLIC "-//W3C//DTD SVG 1.1//EN" "http://www.w3.org/Graphics/SVG/1.1/DTD/svg11.dtd"><svg xmlns="http://www.w3.org/2000/svg" version="1.1" width="753.043" height="918.75" xmlns:xlink="http://www.w3.org/1999/xlink" xlink="http://www.w3.org/1999/xlink" style="position:relative;overflow:hidden;" viewBox="351.167 38.79 753.043 918.75"><defs/><g><g width="684.333" height="851" transform="scale(1,1) translate(366.667,99)"><g transform="scale(1,1) translate(0,0)" stroke="#000000" fill="none" stroke-opacity="1"><path d="M33.382,33.373 L83.455,33.373 L83.455,0 L484.041,0 L484.041,16.686 L584.187,16.686 L584.187,50.059 L684.333,50.059 L684.333,767.569 L661.511,765.765 L617.569,767.569 L617.569,800.941 L534.114,800.941 L534.114,834.314 L534.114,834.314 L534.163,834.354 L532.224,836.719 L530.286,837.691 L528.347,838.43 L526.408,839.049 L524.469,839.589 L522.53,840.074 L520.591,840.516 L518.652,840.925 L516.714,841.305 L514.775,841.662 L512.836,841.998 L510.897,842.316 L508.958,842.619 L507.019,842.908 L505.08,843.184 L503.142,843.449 L501.203,843.703 L499.264,843.947 L497.325,844.183 L495.386,844.41 L493.447,844.629 L491.508,844.842 L489.57,845.047 L487.631,845.245 L485.692,845.438 L483.753,845.625 L481.814,845.806 L479.875,845.982 L477.936,846.153 L475.998,846.319 L474.059,846.481 L472.12,846.638 L470.181,846.791 L468.242,846.939 L466.303,847.084 L464.364,847.225 L462.426,847.362 L460.487,847.496 L458.548,847.626 L456.609,847.753 L454.67,847.876 L452.731,847.997 L450.792,848.114 L448.853,848.228 L446.915,848.339 L444.976,848.447 L443.037,848.553 L441.098,848.655 L439.159,848.755 L437.22,848.853 L435.281,848.947 L433.343,849.039 L431.404,849.129 L429.465,849.216 L427.526,849.301 L425.587,849.384 L423.648,849.464 L421.709,849.542 L419.771,849.617 L417.832,849.69 L415.893,849.762 L413.954,849.831 L412.015,849.897 L410.076,849.962 L408.137,850.025 L406.199,850.085 L404.26,850.144 L402.321,850.201 L400.382,850.255 L398.443,850.308 L396.504,850.359 L394.565,850.407 L392.627,850.454 L390.688,850.499 L388.749,850.542 L386.81,850.583 L384.871,850.623 L382.932,850.66 L380.993,850.696 L379.055,850.73 L377.116,850.762 L375.177,850.792 L373.238,850.82 L371.299,850.847 L369.36,850.872 L367.421,850.895 L365.483,850.917 L363.544,850.936 L361.605,850.954 L359.666,850.971 L357.727,850.985 L355.788,850.998 L353.849,851.009 L351.91,851.019 L349.972,851.026 L348.033,851.032 L346.094,851.036 L344.155,851.039 L342.216,851.04 L342.167,817.627 L342.216,817.667 L319.763,826.34 L310.328,829.402 L303.058,831.532 L296.918,833.174 L291.505,834.503 L286.613,835.607 L282.118,836.54 L277.941,837.336 L274.026,838.019 L270.331,838.608 L266.826,839.114 L263.487,839.549 L260.294,839.921 L257.233,840.236 L254.289,840.501 L251.453,840.719 L248.715,840.895 L246.067,841.032 L243.504,841.132 L241.018,841.2 L238.604,841.236 L236.259,841.242 L233.978,841.221 L231.757,841.174 L229.594,841.102 L227.485,841.007 L225.427,840.89 L223.419,840.751 L221.457,840.593 L219.54,840.414 L217.667,840.218 L215.835,840.003 L214.043,839.771 L212.289,839.523 L210.572,839.259 L208.892,838.979 L207.245,838.684 L205.633,838.375 L204.052,838.052 L202.504,837.715 L200.986,837.365 L199.498,837.002 L198.039,836.627 L196.608,836.239 L195.205,835.84 L193.83,835.429 L192.48,835.006 L191.156,834.572 L189.858,834.128 L188.584,833.673 L187.334,833.207 L186.109,832.731 L184.906,832.245 L183.727,831.749 L182.57,831.244 L181.435,830.729 L180.321,830.204 L179.23,829.671 L178.159,829.128 L177.109,828.576 L176.08,828.016 L175.07,827.447 L174.081,826.869 L173.111,826.283 L172.161,825.688 L171.23,825.085 L170.318,824.474 L169.424,823.855 L168.55,823.228 L167.693,822.593 L166.855,821.95 L166.035,821.299 L165.232,820.641 L164.448,819.975 L163.681,819.301 L162.931,818.62 L162.198,817.932 L161.483,817.236 L160.785,816.533 L160.104,815.822 L159.439,815.104 L158.791,814.379 L158.16,813.647 L157.545,812.908 L156.947,812.161 L156.365,811.408 L155.8,810.647 L155.251,809.88 L154.718,809.106 L154.201,808.324 L153.7,807.536 L153.215,806.741 L152.746,805.938 L152.294,805.129 L151.857,804.313 L151.436,803.491 L151.031,802.661 L150.642,801.824 L150.269,800.981 L150.22,800.941 L150.22,800.941 L150.22,750.882 L83.455,750.882 L83.455,834.314 L0,834.314 L0,367.098 L33.382,367.098 L33.382,33.373 z" stroke-width="5" stroke-dasharray="none"/></g><g fill="#9999FF" stroke="#9999FF" stroke-opacity="1" transform="scale(1,1) translate(0,0)"><path fill="none" stroke-width="1" stroke-dasharray="none" d="M0,-8 L0,-37.855 L321.643,-37.855 M362.69,-37.855 L684.333,-37.855 L684.333,-8 M692.333,0 L722.189,0 L722.189,404.977 M722.189,446.023 L722.189,851 L692.333,851"/><g><g stroke-dasharray="none"><path d="M-1,-9L1,-9L1,-7L-1,-7z" stroke-width="0" fill="none"/></g></g></g><g width="35.04638671875" height="15.710448265075684" transform="scale(1,1) translate(324.643,-45.71)"><text width="35.04638671875" height="15.710448265075684" transform="scale(1,1) translate(0,0)" xml:space="preserve"><tspan xml:space="preserve" text-rendering="optimizeSpeed" font-size="13.88888888888889" font-weight="normal" font-style="normal" fill="#000" opacity="1" x="0" text-anchor="start" y="12.73" textLength="35.04638671875" style="font-family: Arial, Helvetica Neue, Helvetica, sans-serif;">27' 4"</tspan></text></g><g width="35.04638671875" height="15.710448265075684" transform="rotate(270,714.333,443.023) scale(1,1) translate(714.333,443.023)"><text width="35.04638671875" height="15.710448265075684" transform="scale(1,1) translate(0,0)" xml:space="preserve"><tspan xml:space="preserve" text-rendering="optimizeSpeed" font-size="13.88888888888889" font-weight="normal" font-style="normal" fill="#000" opacity="1" x="0" text-anchor="start" y="12.73" textLength="35.04638671875" style="font-family: Arial, Helvetica Neue, Helvetica, sans-serif;">34' 0"</tspan></text></g></g><g width="216.667" height="366.667" transform="scale(1,1) translate(516.667,440.333)"><g transform="scale(1,1) translate(0,0)" stroke="#000000" fill="none" stroke-opacity="1"><path d="M0,0 L0,366.667 L216.667,366.667 L216.667,0 L0,0 z" stroke-width="5" stroke-dasharray="none"/></g><g fill="#9999FF" stroke="#9999FF" stroke-opacity="1" transform="scale(1,1) translate(0,0)"><path fill="none" stroke-width="1" stroke-dasharray="none" d="M0,-8 L0,-37.855 L91.721,-37.855 M124.946,-37.855 L216.667,-37.855 L216.667,-8 M224.667,0 L254.522,0 L254.522,162.81 M254.522,203.857 L254.522,366.667 L224.667,366.667"/><g><g stroke-dasharray="none"><path d="M-1,-9L1,-9L1,-7L-1,-7z" stroke-width="0" fill="none"/></g></g></g><g width="27.225492477416992" height="15.710448265075684" transform="scale(1,1) translate(94.721,-45.71)"><text width="27.225492477416992" height="15.710448265075684" transform="scale(1,1) translate(0,0)" xml:space="preserve"><tspan xml:space="preserve" text-rendering="optimizeSpeed" font-size="13.88888888888889" font-weight="normal" font-style="normal" fill="#000" opacity="1" x="0" text-anchor="start" y="12.73" textLength="27.225492477416992" style="font-family: Arial, Helvetica Neue, Helvetica, sans-serif;">8' 8"</tspan></text></g><g width="35.04638671875" height="15.710448265075684" transform="rotate(270,246.667,200.857) scale(1,1) translate(246.667,200.857)"><text width="35.04638671875" height="15.710448265075684" transform="scale(1,1) translate(0,0)" xml:space="preserve"><tspan xml:space="preserve" text-rendering="optimizeSpeed" font-size="13.88888888888889" font-weight="normal" font-style="normal" fill="#000" opacity="1" x="0" text-anchor="start" y="12.73" textLength="35.04638671875" style="font-family: Arial, Helvetica Neue, Helvetica, sans-serif;">14' 8"</tspan></text></g></g><g width="100" height="800" transform="scale(1,1) translate(800,100)"><g transform="scale(1,1) translate(0,0)" fill="#000000" stroke="#000000" stroke-opacity="1"><path d="M0,0 L0,800 L100,800 L100,800" fill="none" stroke-width="5" stroke-dasharray="none"/><g><g stroke-dasharray="none"><path d="M-5,-5L5,-5L5,5L-5,5z" stroke-width="0" fill="none"/></g></g></g><g fill="#9999FF" stroke="#9999FF" stroke-opacity="1" transform="scale(1,1) translate(0,0)"><path fill="none" stroke-width="1" stroke-dasharray="none" d="M-8,0 L-37.855,0 L-37.855,379.477 M-37.855,420.523 L-37.855,800 L-8,800 M0,808 L0,837.855 L33.387,837.855 M66.613,837.855 L100,837.855 L100,808"/><g><g stroke-dasharray="none"><path d="M-9,-1L-7,-1L-7,1L-9,1z" stroke-width="0" fill="none"/></g></g></g><g width="35.04638671875" height="15.710448265075684" transform="rotate(270,-45.71,417.523) scale(1,1) translate(-45.71,417.523)"><text width="35.04638671875" height="15.710448265075684" transform="scale(1,1) translate(0,0)" xml:space="preserve"><tspan xml:space="preserve" text-rendering="optimizeSpeed" font-size="13.88888888888889" font-weight="normal" font-style="normal" fill="#000" opacity="1" x="0" text-anchor="start" y="12.73" textLength="35.04638671875" style="font-family: Arial, Helvetica Neue, Helvetica, sans-serif;">32' 0"</tspan></text></g><g width="27.225492477416992" height="15.710448265075684" transform="scale(1,1) translate(36.387,830)"><text width="27.225492477416992" height="15.710448265075684" transform="scale(1,1) translate(0,0)" xml:space="preserve"><tspan xml:space="preserve" text-rendering="optimizeSpeed" font-size="13.88888888888889" font-weight="normal" font-style="normal" fill="#000" opacity="1" x="0" text-anchor="start" y="12.73" textLength="27.225492477416992" style="font-family: Arial, Helvetica Neue, Helvetica, sans-serif;">4' 0"</tspan></text></g></g><g width="308.833" height="266.667" transform="scale(1,1) translate(400,99)"><g transform="scale(1,1) translate(0,0)" fill="#000000" stroke="#000000" stroke-opacity="1"><path d="M308.833,0 L308.833,266.667 L0,266.667 L158.833,266.667" fill="none" stroke-width="5" stroke-dasharray="none"/><g><g stroke-dasharray="none"><path d="M303.833,-5L313.833,-5L313.833,5L303.833,5z" stroke-width="0" fill="none"/></g></g></g><g fill="#9999FF" stroke="#9999FF" stroke-opacity="1" transform="scale(1,1) translate(0,0)"><path fill="none" stroke-width="1" stroke-dasharray="none" d="M316.833,0 L346.689,0 L346.689,112.81 M346.689,153.857 L346.689,266.667 L316.833,266.667 M308.833,274.667 L308.833,304.522 L174.94,304.522 M133.893,304.522 L0,304.522 L0,274.667 M0,258.667 L0,228.811 L62.804,228.811 M96.029,228.811 L158.833,228.811 L158.833,258.667"/><g><g stroke-dasharray="none"><path d="M315.833,-1L317.833,-1L317.833,1L315.833,1z" stroke-width="0" fill="none"/></g></g></g><g width="35.04638671875" height="15.710448265075684" transform="rotate(270,338.833,150.857) scale(1,1) translate(338.833,150.857)"><text width="35.04638671875" height="15.710448265075684" transform="scale(1,1) translate(0,0)" xml:space="preserve"><tspan xml:space="preserve" text-rendering="optimizeSpeed" font-size="13.88888888888889" font-weight="normal" font-style="normal" fill="#000" opacity="1" x="0" text-anchor="start" y="12.73" textLength="35.04638671875" style="font-family: Arial, Helvetica Neue, Helvetica, sans-serif;">10' 8"</tspan></text></g><g width="35.04638671875" height="15.710448265075684" transform="rotate(360,136.893,296.667) scale(1,1) translate(136.893,296.667)"><text width="35.04638671875" height="15.710448265075684" transform="scale(1,1) translate(0,0)" xml:space="preserve"><tspan xml:space="preserve" text-rendering="optimizeSpeed" font-size="13.88888888888889" font-weight="normal" font-style="normal" fill="#000" opacity="1" x="0" text-anchor="start" y="12.73" textLength="35.04638671875" style="font-family: Arial, Helvetica Neue, Helvetica, sans-serif;">12' 4"</tspan></text></g><g width="27.225492477416992" height="15.710448265075684" transform="scale(1,1) translate(65.804,220.956)"><text width="27.225492477416992" height="15.710448265075684" transform="scale(1,1) translate(0,0)" xml:space="preserve"><tspan xml:space="preserve" text-rendering="optimizeSpeed" font-size="13.88888888888889" font-weight="normal" font-style="normal" fill="#000" opacity="1" x="0" text-anchor="start" y="12.73" textLength="27.225492477416992" style="font-family: Arial, Helvetica Neue, Helvetica, sans-serif;">6' 4"</tspan></text></g></g><g width="25" height="466.333" transform="scale(1,1) translate(401,466.667)"><g transform="scale(1,1) translate(0,0)" fill="#000000" stroke="#000000" stroke-opacity="1"><path d="M0,0 L25,0 L25,466.333 L25,466.333" fill="none" stroke-width="5" stroke-dasharray="none"/><g><g stroke-dasharray="none"><path d="M-5,-5L5,-5L5,5L-5,5z" stroke-width="0" fill="none"/></g></g></g><g fill="#9999FF" stroke="#9999FF" stroke-opacity="1" transform="scale(1,1) translate(0,0)"><path fill="none" stroke-width="1" stroke-dasharray="none" d="M0,-8 L0,-37.855 L-4.113,-37.855 M29.113,-37.855 L25,-37.855 L25,-8 M33,0 L62.855,0 L62.855,212.643 M62.855,253.69 L62.855,466.333 L33,466.333"/><g><g stroke-dasharray="none"><path d="M-1,-9L1,-9L1,-7L-1,-7z" stroke-width="0" fill="none"/></g></g></g><g width="27.225492477416992" height="15.710448265075684" transform="scale(1,1) translate(-1.113,-45.71)"><text width="27.225492477416992" height="15.710448265075684" transform="scale(1,1) translate(0,0)" xml:space="preserve"><tspan xml:space="preserve" text-rendering="optimizeSpeed" font-size="13.88888888888889" font-weight="normal" font-style="normal" fill="#000" opacity="1" x="0" text-anchor="start" y="12.73" textLength="27.225492477416992" style="font-family: Arial, Helvetica Neue, Helvetica, sans-serif;">1' 0"</tspan></text></g><g width="35.04638671875" height="15.710448265075684" transform="rotate(270,55,250.69) scale(1,1) translate(55,250.69)"><text width="35.04638671875" height="15.710448265075684" transform="scale(1,1) translate(0,0)" xml:space="preserve"><tspan xml:space="preserve" text-rendering="optimizeSpeed" font-size="13.88888888888889" font-weight="normal" font-style="normal" fill="#000" opacity="1" x="0" text-anchor="start" y="12.73" textLength="35.04638671875" style="font-family: Arial, Helvetica Neue, Helvetica, sans-serif;">18' 8"</tspan></text></g></g></g></svg>